
<svg width="144" height="44" viewBox="0 0 144 44" fill="none" xmlns="http://www.w3.org/2000/svg">
<path d="M0 11.7095C0 5.2425 5.24251 0 11.7095 0H127.92C135.864 0 141.503 7.74284 139.064 15.3037L132.426 35.8848C130.866 40.7216 126.365 44 121.282 44H11.7095C5.24252 44 0 38.7575 0 32.2905V11.7095Z" fill="#FFDA7C"/>
<g clip-path="url(#clip0_1245_780)">
<path d="M25.7155 13.0146C26.6077 13.0023 27.4923 13.1774 28.3092 13.5283C29.1261 13.8791 29.8563 14.3974 30.4503 15.048L28.4754 16.8337C27.7248 16.1579 26.736 15.7915 25.7155 15.811C25.2713 15.7997 24.8297 15.8796 24.4191 16.0454C24.0085 16.2113 23.638 16.4594 23.3317 16.7738C23.0102 17.1067 22.7602 17.4991 22.5965 17.928C22.4329 18.3568 22.3589 18.8134 22.379 19.2707C22.359 19.7261 22.433 20.1809 22.5967 20.6078C22.7603 21.0347 23.0103 21.425 23.3317 21.7555C23.6402 22.0661 24.0115 22.3106 24.4218 22.4736C24.8321 22.6366 25.2727 22.7145 25.7155 22.7023C26.7326 22.7284 27.721 22.3708 28.4754 21.7036L30.4503 23.4893C29.8568 24.1406 29.1267 24.6593 28.3097 25.0101C27.4926 25.361 26.6078 25.5359 25.7155 25.5228C24.8776 25.5342 24.0463 25.3777 23.2727 25.063C22.4992 24.7483 21.7998 24.2821 21.2178 23.6931C20.6119 23.1202 20.1322 22.4325 19.8081 21.672C19.484 20.9115 19.3223 20.0944 19.3329 19.2707C19.319 18.4477 19.4773 17.6307 19.7979 16.8696C20.1185 16.1085 20.5947 15.4193 21.1974 14.8442C21.7817 14.2528 22.4844 13.7851 23.2617 13.4703C24.0389 13.1556 24.8742 13.0004 25.7155 13.0146Z" fill="#383838"/>
<path d="M38.3586 15.9391V25.3991H35.3083V15.9391H32.0986V13.1426H41.5683V15.9391H38.3586Z" fill="#383838"/>
<path d="M47.1373 17.8487H52.1992V20.6692H47.1373V22.5788H52.6817V25.3992H44.0952V13.1387H52.6817V15.9351H47.1373V17.8487Z" fill="#383838"/>
<path d="M63.3002 25.3992L60.6997 21.4242C60.5524 21.1807 60.3563 20.9687 60.1232 20.801C59.9034 20.6824 59.6543 20.6257 59.4035 20.6372H58.7084V25.3992H55.6582V13.1387H58.7084V17.7608H59.3708C59.6271 17.7751 59.8822 17.7183 60.1068 17.597C60.3396 17.4301 60.5345 17.2179 60.6792 16.9738L63.1898 13.1387H66.6162L63.5496 17.8487C63.1861 18.3461 62.7445 18.7843 62.2412 19.1471C62.7922 19.5031 63.2468 19.9842 63.5659 20.5493L66.7388 25.3992H63.3002Z" fill="#383838"/>
<path d="M74.2169 18.5838L71.6001 25.3992H68.2104L73.3378 13.1387H75.1696L80.2233 25.3992H76.8337L74.2169 18.5838Z" fill="#383838"/>
<path d="M83.0201 14.8447C84.2206 13.6735 85.8478 13.0156 87.5444 13.0156C89.2409 13.0156 90.8681 13.6735 92.0686 14.8447C92.6731 15.4188 93.1511 16.1076 93.4732 16.8688C93.7952 17.63 93.9545 18.4475 93.9413 19.2711C93.9539 20.094 93.7944 20.9108 93.4723 21.6713C93.1503 22.4317 92.6726 23.1199 92.0686 23.6935C90.8681 24.8647 89.2409 25.5226 87.5444 25.5226C85.8478 25.5226 84.2206 24.8647 83.0201 23.6935C82.4179 23.1189 81.942 22.4304 81.6214 21.67C81.3009 20.9096 81.1424 20.0934 81.1556 19.2711C81.1418 18.4482 81.3 17.6311 81.6206 16.87C81.9412 16.1089 82.4174 15.4197 83.0201 14.8447ZM89.9343 16.7743C89.6251 16.4601 89.2524 16.2123 88.8399 16.0465C88.4274 15.8808 87.9841 15.8007 87.5382 15.8115C87.0954 15.8013 86.6554 15.8817 86.2463 16.0475C85.8371 16.2133 85.468 16.4608 85.1626 16.7743C84.8416 17.1073 84.5923 17.4999 84.4293 17.9287C84.2664 18.3576 84.1932 18.8141 84.214 19.2711C84.1914 19.7277 84.2638 20.184 84.4268 20.6125C84.5899 21.041 84.8402 21.4327 85.1626 21.764C85.8071 22.3664 86.6647 22.7026 87.5566 22.7026C88.4486 22.7026 89.3061 22.3664 89.9506 21.764C90.2709 21.4317 90.5189 21.0396 90.6798 20.6111C90.8408 20.1827 90.9112 19.7269 90.8869 19.2711C90.9077 18.8138 90.8341 18.357 90.6704 17.928C90.5067 17.4991 90.2564 17.1067 89.9343 16.7743Z" fill="#383838"/>
<path d="M105.399 25.3991H95.7939V23.5974L100.778 19.6024C101.743 18.8674 102.23 18.2002 102.23 17.605C102.242 17.3991 102.21 17.1929 102.133 17.0006C102.057 16.8082 101.939 16.6342 101.788 16.4904C101.461 16.2164 101.045 16.0649 100.615 16.0629H100.525C99.9386 16.0629 99.0963 16.4624 97.9978 17.2614L96.027 15.4716C97.6843 13.9988 99.2721 13.2611 100.79 13.2584H100.897C101.752 13.2452 102.596 13.4445 103.35 13.8377C103.957 14.1483 104.458 14.6261 104.789 15.212C105.076 15.7568 105.223 16.3612 105.219 16.9737C105.215 17.8722 104.914 18.7454 104.36 19.4626C103.618 20.3928 102.749 21.2182 101.776 21.9155L100.934 22.6026H105.399V25.3991Z" fill="#383838"/>
<path d="M115.706 23.7011V25.3989H112.66V23.7011H107.029V21.9153L113.878 13.4141H115.706V20.8806H116.818V23.7011H115.706ZM112.66 18.1641L110.542 20.8806H112.66V18.1641Z" fill="#383838"/>
<path d="M90.0124 32.1332H89.5094V28.7255L87.8739 30.7789L86.2384 28.7255V32.1252H85.7437V27.8066H86.0217L87.8739 30.1317L89.7384 27.8066H90.0164L90.0124 32.1332Z" fill="#383838"/>
<path d="M91.8153 28.4069C92.1875 28.0465 92.6761 27.8233 93.1979 27.7753C93.7196 27.7274 94.2423 27.8577 94.6767 28.1441C95.1112 28.4305 95.4305 28.8552 95.5804 29.3458C95.7303 29.8365 95.7015 30.3627 95.4988 30.8349C95.2961 31.3071 94.9321 31.696 94.4688 31.9353C94.0055 32.1747 93.4716 32.2497 92.9581 32.1476C92.4445 32.0454 91.9831 31.7725 91.6525 31.3752C91.3218 30.978 91.1424 30.481 91.1447 29.969C91.1409 29.6776 91.1985 29.3886 91.3138 29.1199C91.4292 28.8511 91.5999 28.6085 91.8153 28.4069ZM94.6774 28.7145C94.5146 28.5512 94.3192 28.4222 94.1032 28.3356C93.8873 28.249 93.6555 28.2067 93.4222 28.2112C93.1935 28.2096 92.9668 28.2533 92.756 28.3399C92.5451 28.4264 92.3544 28.5539 92.1955 28.7145C91.8677 29.0529 91.685 29.5011 91.685 29.967C91.685 30.4329 91.8677 30.8811 92.1955 31.2194C92.3544 31.3801 92.5451 31.5075 92.756 31.5941C92.9668 31.6806 93.1935 31.7244 93.4222 31.7227C93.6555 31.7273 93.8873 31.6849 94.1032 31.5983C94.3192 31.5117 94.5146 31.3828 94.6774 31.2194C95.0053 30.8811 95.188 30.4329 95.188 29.967C95.188 29.5011 95.0053 29.0529 94.6774 28.7145Z" fill="#383838"/>
<path d="M98.7986 27.764C99.1137 27.759 99.4261 27.821 99.7142 27.9459C100.002 28.0708 100.259 28.2554 100.467 28.487L100.144 28.7707C99.9711 28.5922 99.7624 28.4506 99.5308 28.355C99.2993 28.2595 99.0499 28.2119 98.7986 28.2154C98.5652 28.2115 98.3335 28.2549 98.1181 28.3429C97.9028 28.431 97.7084 28.5616 97.5474 28.7267C97.2196 29.0651 97.0369 29.5133 97.0369 29.9792C97.0369 30.4451 97.2196 30.8932 97.5474 31.2316C97.7091 31.3952 97.9038 31.5244 98.1191 31.6111C98.3344 31.6977 98.5658 31.7399 98.7986 31.7349C99.0502 31.7396 99.3 31.6918 99.5313 31.5946C99.7626 31.4975 99.97 31.3533 100.14 31.1717L100.463 31.4673C100.155 31.7952 99.7534 32.0246 99.3101 32.1254C98.8667 32.2262 98.4026 32.1937 97.9785 32.0321C97.5544 31.8705 97.1903 31.5874 96.9338 31.2199C96.6774 30.8525 96.5406 30.4179 96.5415 29.9732C96.5399 29.6833 96.597 29.3959 96.7096 29.1277C96.8221 28.8595 96.9879 28.6157 97.1973 28.4103C97.4067 28.205 97.6557 28.0421 97.9298 27.9312C98.2039 27.8203 98.4978 27.7634 98.7945 27.764H98.7986Z" fill="#383838"/>
<path d="M104.519 32.1332L103.619 30.7629C103.506 30.5846 103.368 30.422 103.21 30.2795C103.073 30.1901 102.909 30.1492 102.744 30.1637H102.025V32.1332H101.53V27.8066H102.025V29.7042H102.675C102.839 29.7187 103.003 29.6778 103.141 29.5884C103.301 29.4478 103.438 29.2849 103.55 29.105L104.404 27.8066H104.968L103.991 29.2728C103.888 29.4266 103.776 29.5746 103.656 29.7162C103.584 29.7983 103.496 29.8661 103.398 29.916C103.517 29.9551 103.623 30.024 103.705 30.1157C103.836 30.2663 103.955 30.4266 104.061 30.5951L105.079 32.1332H104.519Z" fill="#383838"/>
<path d="M106.085 27.8066H107.696C108.675 27.8066 109.164 28.1782 109.164 28.9212C109.183 29.1301 109.126 29.3387 109.003 29.5109C108.881 29.683 108.701 29.808 108.494 29.864C108.754 29.9005 108.99 30.0305 109.158 30.2285C109.325 30.4265 109.41 30.6783 109.397 30.9347C109.397 31.7337 108.882 32.1332 107.852 32.1332H106.085V27.8066ZM106.58 28.2581V29.6843H107.737C108.375 29.6843 108.694 29.4486 108.694 28.9732C108.699 28.8778 108.684 28.7824 108.65 28.693C108.615 28.6036 108.562 28.5222 108.494 28.4538C108.276 28.297 108.006 28.227 107.737 28.2581H106.58ZM106.58 30.0997V31.6977H107.942C108.6 31.6977 108.927 31.4341 108.927 30.8987C108.933 30.791 108.914 30.6835 108.871 30.584C108.829 30.4844 108.764 30.3954 108.682 30.3235C108.471 30.1652 108.207 30.0884 107.942 30.1077L106.58 30.0997Z" fill="#383838"/>
<path d="M111.024 30.9866L110.542 32.1332H109.998L111.834 27.8066H112.112L113.94 32.1332H113.396L112.913 30.9866H111.024ZM111.973 28.6975L111.2 30.5352H112.746L111.973 28.6975Z" fill="#383838"/>
</g>
<defs>
<clipPath id="clip0_1245_780">
<rect width="97.485" height="19.831" fill="white" transform="translate(19.3335 13.0117)"/>
</clipPath>
</defs>
</svg>
